<mxfile host="app.diagrams.net" agent="Mozilla/5.0 (Windows NT 10.0; Win64; x64) AppleWebKit/537.36 (KHTML, like Gecko) Chrome/131.0.0.0 Safari/537.36" version="25.0.3">
  <diagram name="Page-1" id="mnjUU9U3ReBdD95EHL8B">
    <mxGraphModel grid="1" page="1" gridSize="7" guides="1" tooltips="1" connect="1" arrows="1" fold="1" pageScale="1" pageWidth="850" pageHeight="1100" math="0" shadow="0">
      <root>
        <mxCell id="0" />
        <mxCell id="1" parent="0" />
        <mxCell id="FbRC_cXe3vTBWcdBTFs_-1" value="User" style="swimlane;fontStyle=1;align=center;verticalAlign=top;childLayout=stackLayout;horizontal=1;startSize=25.076923076923077;horizontalStack=0;resizeParent=1;resizeParentMax=0;resizeLast=0;collapsible=0;marginBottom=0;" vertex="1" parent="1">
          <mxGeometry x="281" y="262" width="178" height="333.0769230769231" as="geometry" />
        </mxCell>
        <mxCell id="FbRC_cXe3vTBWcdBTFs_-2" value="+id: int" style="text;strokeColor=none;fillColor=none;align=left;verticalAlign=top;spacingLeft=4;spacingRight=4;overflow=hidden;rotatable=0;points=[[0,0.5],[1,0.5]];portConstraint=eastwest;" vertex="1" parent="FbRC_cXe3vTBWcdBTFs_-1">
          <mxGeometry y="25.076923076923077" width="178" height="25" as="geometry" />
        </mxCell>
        <mxCell id="FbRC_cXe3vTBWcdBTFs_-3" value="+username: str" style="text;strokeColor=none;fillColor=none;align=left;verticalAlign=top;spacingLeft=4;spacingRight=4;overflow=hidden;rotatable=0;points=[[0,0.5],[1,0.5]];portConstraint=eastwest;" vertex="1" parent="FbRC_cXe3vTBWcdBTFs_-1">
          <mxGeometry y="50.07692307692308" width="178" height="25" as="geometry" />
        </mxCell>
        <mxCell id="FbRC_cXe3vTBWcdBTFs_-4" value="+email: str" style="text;strokeColor=none;fillColor=none;align=left;verticalAlign=top;spacingLeft=4;spacingRight=4;overflow=hidden;rotatable=0;points=[[0,0.5],[1,0.5]];portConstraint=eastwest;" vertex="1" parent="FbRC_cXe3vTBWcdBTFs_-1">
          <mxGeometry y="75.07692307692308" width="178" height="25" as="geometry" />
        </mxCell>
        <mxCell id="FbRC_cXe3vTBWcdBTFs_-5" value="+password: str" style="text;strokeColor=none;fillColor=none;align=left;verticalAlign=top;spacingLeft=4;spacingRight=4;overflow=hidden;rotatable=0;points=[[0,0.5],[1,0.5]];portConstraint=eastwest;" vertex="1" parent="FbRC_cXe3vTBWcdBTFs_-1">
          <mxGeometry y="100.07692307692308" width="178" height="25" as="geometry" />
        </mxCell>
        <mxCell id="FbRC_cXe3vTBWcdBTFs_-6" value="+profile_picture: str" style="text;strokeColor=none;fillColor=none;align=left;verticalAlign=top;spacingLeft=4;spacingRight=4;overflow=hidden;rotatable=0;points=[[0,0.5],[1,0.5]];portConstraint=eastwest;" vertex="1" parent="FbRC_cXe3vTBWcdBTFs_-1">
          <mxGeometry y="125.07692307692308" width="178" height="25" as="geometry" />
        </mxCell>
        <mxCell id="FbRC_cXe3vTBWcdBTFs_-7" value="+bio: str" style="text;strokeColor=none;fillColor=none;align=left;verticalAlign=top;spacingLeft=4;spacingRight=4;overflow=hidden;rotatable=0;points=[[0,0.5],[1,0.5]];portConstraint=eastwest;" vertex="1" parent="FbRC_cXe3vTBWcdBTFs_-1">
          <mxGeometry y="150.0769230769231" width="178" height="25" as="geometry" />
        </mxCell>
        <mxCell id="FbRC_cXe3vTBWcdBTFs_-8" value="+created_at: datetime" style="text;strokeColor=none;fillColor=none;align=left;verticalAlign=top;spacingLeft=4;spacingRight=4;overflow=hidden;rotatable=0;points=[[0,0.5],[1,0.5]];portConstraint=eastwest;" vertex="1" parent="FbRC_cXe3vTBWcdBTFs_-1">
          <mxGeometry y="175.0769230769231" width="178" height="25" as="geometry" />
        </mxCell>
        <mxCell id="FbRC_cXe3vTBWcdBTFs_-9" value="+last_login: datetime" style="text;strokeColor=none;fillColor=none;align=left;verticalAlign=top;spacingLeft=4;spacingRight=4;overflow=hidden;rotatable=0;points=[[0,0.5],[1,0.5]];portConstraint=eastwest;" vertex="1" parent="FbRC_cXe3vTBWcdBTFs_-1">
          <mxGeometry y="200.0769230769231" width="178" height="25" as="geometry" />
        </mxCell>
        <mxCell id="FbRC_cXe3vTBWcdBTFs_-10" style="line;strokeWidth=1;fillColor=none;align=left;verticalAlign=middle;spacingTop=-1;spacingLeft=3;spacingRight=3;rotatable=0;labelPosition=right;points=[];portConstraint=eastwest;strokeColor=inherit;" vertex="1" parent="FbRC_cXe3vTBWcdBTFs_-1">
          <mxGeometry y="225.0769230769231" width="178" height="8" as="geometry" />
        </mxCell>
        <mxCell id="FbRC_cXe3vTBWcdBTFs_-11" value="+register()" style="text;strokeColor=none;fillColor=none;align=left;verticalAlign=top;spacingLeft=4;spacingRight=4;overflow=hidden;rotatable=0;points=[[0,0.5],[1,0.5]];portConstraint=eastwest;" vertex="1" parent="FbRC_cXe3vTBWcdBTFs_-1">
          <mxGeometry y="233.0769230769231" width="178" height="25" as="geometry" />
        </mxCell>
        <mxCell id="FbRC_cXe3vTBWcdBTFs_-12" value="+login()" style="text;strokeColor=none;fillColor=none;align=left;verticalAlign=top;spacingLeft=4;spacingRight=4;overflow=hidden;rotatable=0;points=[[0,0.5],[1,0.5]];portConstraint=eastwest;" vertex="1" parent="FbRC_cXe3vTBWcdBTFs_-1">
          <mxGeometry y="258.0769230769231" width="178" height="25" as="geometry" />
        </mxCell>
        <mxCell id="FbRC_cXe3vTBWcdBTFs_-13" value="+update_profile()" style="text;strokeColor=none;fillColor=none;align=left;verticalAlign=top;spacingLeft=4;spacingRight=4;overflow=hidden;rotatable=0;points=[[0,0.5],[1,0.5]];portConstraint=eastwest;" vertex="1" parent="FbRC_cXe3vTBWcdBTFs_-1">
          <mxGeometry y="283.0769230769231" width="178" height="25" as="geometry" />
        </mxCell>
        <mxCell id="FbRC_cXe3vTBWcdBTFs_-14" value="+reset_password()" style="text;strokeColor=none;fillColor=none;align=left;verticalAlign=top;spacingLeft=4;spacingRight=4;overflow=hidden;rotatable=0;points=[[0,0.5],[1,0.5]];portConstraint=eastwest;" vertex="1" parent="FbRC_cXe3vTBWcdBTFs_-1">
          <mxGeometry y="308.0769230769231" width="178" height="25" as="geometry" />
        </mxCell>
        <mxCell id="FbRC_cXe3vTBWcdBTFs_-15" value="Admin" style="swimlane;fontStyle=1;align=center;verticalAlign=top;childLayout=stackLayout;horizontal=1;startSize=25.384615384615383;horizontalStack=0;resizeParent=1;resizeParentMax=0;resizeLast=0;collapsible=0;marginBottom=0;" vertex="1" parent="1">
          <mxGeometry x="283" y="60" width="173" height="158.3846153846154" as="geometry" />
        </mxCell>
        <mxCell id="FbRC_cXe3vTBWcdBTFs_-16" style="line;strokeWidth=1;fillColor=none;align=left;verticalAlign=middle;spacingTop=-1;spacingLeft=3;spacingRight=3;rotatable=0;labelPosition=right;points=[];portConstraint=eastwest;strokeColor=inherit;" vertex="1" parent="FbRC_cXe3vTBWcdBTFs_-15">
          <mxGeometry y="25.384615384615383" width="173" height="8" as="geometry" />
        </mxCell>
        <mxCell id="FbRC_cXe3vTBWcdBTFs_-17" value="+moderate_content()" style="text;strokeColor=none;fillColor=none;align=left;verticalAlign=top;spacingLeft=4;spacingRight=4;overflow=hidden;rotatable=0;points=[[0,0.5],[1,0.5]];portConstraint=eastwest;" vertex="1" parent="FbRC_cXe3vTBWcdBTFs_-15">
          <mxGeometry y="33.38461538461539" width="173" height="25" as="geometry" />
        </mxCell>
        <mxCell id="FbRC_cXe3vTBWcdBTFs_-18" value="+ban_user()" style="text;strokeColor=none;fillColor=none;align=left;verticalAlign=top;spacingLeft=4;spacingRight=4;overflow=hidden;rotatable=0;points=[[0,0.5],[1,0.5]];portConstraint=eastwest;" vertex="1" parent="FbRC_cXe3vTBWcdBTFs_-15">
          <mxGeometry y="58.38461538461539" width="173" height="25" as="geometry" />
        </mxCell>
        <mxCell id="FbRC_cXe3vTBWcdBTFs_-19" value="+unban_user()" style="text;strokeColor=none;fillColor=none;align=left;verticalAlign=top;spacingLeft=4;spacingRight=4;overflow=hidden;rotatable=0;points=[[0,0.5],[1,0.5]];portConstraint=eastwest;" vertex="1" parent="FbRC_cXe3vTBWcdBTFs_-15">
          <mxGeometry y="83.38461538461539" width="173" height="25" as="geometry" />
        </mxCell>
        <mxCell id="FbRC_cXe3vTBWcdBTFs_-20" value="+generate_reports()" style="text;strokeColor=none;fillColor=none;align=left;verticalAlign=top;spacingLeft=4;spacingRight=4;overflow=hidden;rotatable=0;points=[[0,0.5],[1,0.5]];portConstraint=eastwest;" vertex="1" parent="FbRC_cXe3vTBWcdBTFs_-15">
          <mxGeometry y="108.38461538461539" width="173" height="25" as="geometry" />
        </mxCell>
        <mxCell id="FbRC_cXe3vTBWcdBTFs_-21" value="+resolve_complaints()" style="text;strokeColor=none;fillColor=none;align=left;verticalAlign=top;spacingLeft=4;spacingRight=4;overflow=hidden;rotatable=0;points=[[0,0.5],[1,0.5]];portConstraint=eastwest;" vertex="1" parent="FbRC_cXe3vTBWcdBTFs_-15">
          <mxGeometry y="133.3846153846154" width="173" height="25" as="geometry" />
        </mxCell>
        <mxCell id="FbRC_cXe3vTBWcdBTFs_-22" value="Post" style="swimlane;fontStyle=1;align=center;verticalAlign=top;childLayout=stackLayout;horizontal=1;startSize=25.454545454545453;horizontalStack=0;resizeParent=1;resizeParentMax=0;resizeLast=0;collapsible=0;marginBottom=0;" vertex="1" parent="1">
          <mxGeometry x="874" y="665" width="213" height="283.45454545454544" as="geometry" />
        </mxCell>
        <mxCell id="FbRC_cXe3vTBWcdBTFs_-23" value="+id: int" style="text;strokeColor=none;fillColor=none;align=left;verticalAlign=top;spacingLeft=4;spacingRight=4;overflow=hidden;rotatable=0;points=[[0,0.5],[1,0.5]];portConstraint=eastwest;" vertex="1" parent="FbRC_cXe3vTBWcdBTFs_-22">
          <mxGeometry y="25.454545454545453" width="213" height="25" as="geometry" />
        </mxCell>
        <mxCell id="FbRC_cXe3vTBWcdBTFs_-24" value="+author: User" style="text;strokeColor=none;fillColor=none;align=left;verticalAlign=top;spacingLeft=4;spacingRight=4;overflow=hidden;rotatable=0;points=[[0,0.5],[1,0.5]];portConstraint=eastwest;" vertex="1" parent="FbRC_cXe3vTBWcdBTFs_-22">
          <mxGeometry y="50.45454545454545" width="213" height="25" as="geometry" />
        </mxCell>
        <mxCell id="FbRC_cXe3vTBWcdBTFs_-25" value="+content: str" style="text;strokeColor=none;fillColor=none;align=left;verticalAlign=top;spacingLeft=4;spacingRight=4;overflow=hidden;rotatable=0;points=[[0,0.5],[1,0.5]];portConstraint=eastwest;" vertex="1" parent="FbRC_cXe3vTBWcdBTFs_-22">
          <mxGeometry y="75.45454545454545" width="213" height="25" as="geometry" />
        </mxCell>
        <mxCell id="FbRC_cXe3vTBWcdBTFs_-26" value="+media_url: str" style="text;strokeColor=none;fillColor=none;align=left;verticalAlign=top;spacingLeft=4;spacingRight=4;overflow=hidden;rotatable=0;points=[[0,0.5],[1,0.5]];portConstraint=eastwest;" vertex="1" parent="FbRC_cXe3vTBWcdBTFs_-22">
          <mxGeometry y="100.45454545454545" width="213" height="25" as="geometry" />
        </mxCell>
        <mxCell id="FbRC_cXe3vTBWcdBTFs_-27" value="+created_at: datetime" style="text;strokeColor=none;fillColor=none;align=left;verticalAlign=top;spacingLeft=4;spacingRight=4;overflow=hidden;rotatable=0;points=[[0,0.5],[1,0.5]];portConstraint=eastwest;" vertex="1" parent="FbRC_cXe3vTBWcdBTFs_-22">
          <mxGeometry y="125.45454545454545" width="213" height="25" as="geometry" />
        </mxCell>
        <mxCell id="FbRC_cXe3vTBWcdBTFs_-28" value="+likes: int" style="text;strokeColor=none;fillColor=none;align=left;verticalAlign=top;spacingLeft=4;spacingRight=4;overflow=hidden;rotatable=0;points=[[0,0.5],[1,0.5]];portConstraint=eastwest;" vertex="1" parent="FbRC_cXe3vTBWcdBTFs_-22">
          <mxGeometry y="150.45454545454544" width="213" height="25" as="geometry" />
        </mxCell>
        <mxCell id="FbRC_cXe3vTBWcdBTFs_-29" value="+comments: List[Comment]" style="text;strokeColor=none;fillColor=none;align=left;verticalAlign=top;spacingLeft=4;spacingRight=4;overflow=hidden;rotatable=0;points=[[0,0.5],[1,0.5]];portConstraint=eastwest;" vertex="1" parent="FbRC_cXe3vTBWcdBTFs_-22">
          <mxGeometry y="175.45454545454544" width="213" height="25" as="geometry" />
        </mxCell>
        <mxCell id="FbRC_cXe3vTBWcdBTFs_-30" style="line;strokeWidth=1;fillColor=none;align=left;verticalAlign=middle;spacingTop=-1;spacingLeft=3;spacingRight=3;rotatable=0;labelPosition=right;points=[];portConstraint=eastwest;strokeColor=inherit;" vertex="1" parent="FbRC_cXe3vTBWcdBTFs_-22">
          <mxGeometry y="200.45454545454544" width="213" height="8" as="geometry" />
        </mxCell>
        <mxCell id="FbRC_cXe3vTBWcdBTFs_-31" value="+create_post()" style="text;strokeColor=none;fillColor=none;align=left;verticalAlign=top;spacingLeft=4;spacingRight=4;overflow=hidden;rotatable=0;points=[[0,0.5],[1,0.5]];portConstraint=eastwest;" vertex="1" parent="FbRC_cXe3vTBWcdBTFs_-22">
          <mxGeometry y="208.45454545454544" width="213" height="25" as="geometry" />
        </mxCell>
        <mxCell id="FbRC_cXe3vTBWcdBTFs_-32" value="+edit_post()" style="text;strokeColor=none;fillColor=none;align=left;verticalAlign=top;spacingLeft=4;spacingRight=4;overflow=hidden;rotatable=0;points=[[0,0.5],[1,0.5]];portConstraint=eastwest;" vertex="1" parent="FbRC_cXe3vTBWcdBTFs_-22">
          <mxGeometry y="233.45454545454544" width="213" height="25" as="geometry" />
        </mxCell>
        <mxCell id="FbRC_cXe3vTBWcdBTFs_-33" value="+delete_post()" style="text;strokeColor=none;fillColor=none;align=left;verticalAlign=top;spacingLeft=4;spacingRight=4;overflow=hidden;rotatable=0;points=[[0,0.5],[1,0.5]];portConstraint=eastwest;" vertex="1" parent="FbRC_cXe3vTBWcdBTFs_-22">
          <mxGeometry y="258.45454545454544" width="213" height="25" as="geometry" />
        </mxCell>
        <mxCell id="FbRC_cXe3vTBWcdBTFs_-34" value="Comment" style="swimlane;fontStyle=1;align=center;verticalAlign=top;childLayout=stackLayout;horizontal=1;startSize=26.375;horizontalStack=0;resizeParent=1;resizeParentMax=0;resizeLast=0;collapsible=0;marginBottom=0;" vertex="1" parent="1">
          <mxGeometry x="279" y="1022" width="178" height="216.375" as="geometry" />
        </mxCell>
        <mxCell id="FbRC_cXe3vTBWcdBTFs_-35" value="+id: int" style="text;strokeColor=none;fillColor=none;align=left;verticalAlign=top;spacingLeft=4;spacingRight=4;overflow=hidden;rotatable=0;points=[[0,0.5],[1,0.5]];portConstraint=eastwest;" vertex="1" parent="FbRC_cXe3vTBWcdBTFs_-34">
          <mxGeometry y="26.375" width="178" height="26" as="geometry" />
        </mxCell>
        <mxCell id="FbRC_cXe3vTBWcdBTFs_-36" value="+author: User" style="text;strokeColor=none;fillColor=none;align=left;verticalAlign=top;spacingLeft=4;spacingRight=4;overflow=hidden;rotatable=0;points=[[0,0.5],[1,0.5]];portConstraint=eastwest;" vertex="1" parent="FbRC_cXe3vTBWcdBTFs_-34">
          <mxGeometry y="52.375" width="178" height="26" as="geometry" />
        </mxCell>
        <mxCell id="FbRC_cXe3vTBWcdBTFs_-37" value="+post: Post" style="text;strokeColor=none;fillColor=none;align=left;verticalAlign=top;spacingLeft=4;spacingRight=4;overflow=hidden;rotatable=0;points=[[0,0.5],[1,0.5]];portConstraint=eastwest;" vertex="1" parent="FbRC_cXe3vTBWcdBTFs_-34">
          <mxGeometry y="78.375" width="178" height="26" as="geometry" />
        </mxCell>
        <mxCell id="FbRC_cXe3vTBWcdBTFs_-38" value="+content: str" style="text;strokeColor=none;fillColor=none;align=left;verticalAlign=top;spacingLeft=4;spacingRight=4;overflow=hidden;rotatable=0;points=[[0,0.5],[1,0.5]];portConstraint=eastwest;" vertex="1" parent="FbRC_cXe3vTBWcdBTFs_-34">
          <mxGeometry y="104.375" width="178" height="26" as="geometry" />
        </mxCell>
        <mxCell id="FbRC_cXe3vTBWcdBTFs_-39" value="+created_at: datetime" style="text;strokeColor=none;fillColor=none;align=left;verticalAlign=top;spacingLeft=4;spacingRight=4;overflow=hidden;rotatable=0;points=[[0,0.5],[1,0.5]];portConstraint=eastwest;" vertex="1" parent="FbRC_cXe3vTBWcdBTFs_-34">
          <mxGeometry y="130.375" width="178" height="26" as="geometry" />
        </mxCell>
        <mxCell id="FbRC_cXe3vTBWcdBTFs_-40" style="line;strokeWidth=1;fillColor=none;align=left;verticalAlign=middle;spacingTop=-1;spacingLeft=3;spacingRight=3;rotatable=0;labelPosition=right;points=[];portConstraint=eastwest;strokeColor=inherit;" vertex="1" parent="FbRC_cXe3vTBWcdBTFs_-34">
          <mxGeometry y="156.375" width="178" height="8" as="geometry" />
        </mxCell>
        <mxCell id="FbRC_cXe3vTBWcdBTFs_-41" value="+edit_comment()" style="text;strokeColor=none;fillColor=none;align=left;verticalAlign=top;spacingLeft=4;spacingRight=4;overflow=hidden;rotatable=0;points=[[0,0.5],[1,0.5]];portConstraint=eastwest;" vertex="1" parent="FbRC_cXe3vTBWcdBTFs_-34">
          <mxGeometry y="164.375" width="178" height="26" as="geometry" />
        </mxCell>
        <mxCell id="FbRC_cXe3vTBWcdBTFs_-42" value="+delete_comment()" style="text;strokeColor=none;fillColor=none;align=left;verticalAlign=top;spacingLeft=4;spacingRight=4;overflow=hidden;rotatable=0;points=[[0,0.5],[1,0.5]];portConstraint=eastwest;" vertex="1" parent="FbRC_cXe3vTBWcdBTFs_-34">
          <mxGeometry y="190.375" width="178" height="26" as="geometry" />
        </mxCell>
        <mxCell id="FbRC_cXe3vTBWcdBTFs_-43" value="Message" style="swimlane;fontStyle=1;align=center;verticalAlign=top;childLayout=stackLayout;horizontal=1;startSize=26;horizontalStack=0;resizeParent=1;resizeParentMax=0;resizeLast=0;collapsible=0;marginBottom=0;" vertex="1" parent="1">
          <mxGeometry x="78" y="688" width="153" height="242" as="geometry" />
        </mxCell>
        <mxCell id="FbRC_cXe3vTBWcdBTFs_-44" value="+id: int" style="text;strokeColor=none;fillColor=none;align=left;verticalAlign=top;spacingLeft=4;spacingRight=4;overflow=hidden;rotatable=0;points=[[0,0.5],[1,0.5]];portConstraint=eastwest;" vertex="1" parent="FbRC_cXe3vTBWcdBTFs_-43">
          <mxGeometry y="26" width="153" height="26" as="geometry" />
        </mxCell>
        <mxCell id="FbRC_cXe3vTBWcdBTFs_-45" value="+sender: User" style="text;strokeColor=none;fillColor=none;align=left;verticalAlign=top;spacingLeft=4;spacingRight=4;overflow=hidden;rotatable=0;points=[[0,0.5],[1,0.5]];portConstraint=eastwest;" vertex="1" parent="FbRC_cXe3vTBWcdBTFs_-43">
          <mxGeometry y="52" width="153" height="26" as="geometry" />
        </mxCell>
        <mxCell id="FbRC_cXe3vTBWcdBTFs_-46" value="+receiver: User" style="text;strokeColor=none;fillColor=none;align=left;verticalAlign=top;spacingLeft=4;spacingRight=4;overflow=hidden;rotatable=0;points=[[0,0.5],[1,0.5]];portConstraint=eastwest;" vertex="1" parent="FbRC_cXe3vTBWcdBTFs_-43">
          <mxGeometry y="78" width="153" height="26" as="geometry" />
        </mxCell>
        <mxCell id="FbRC_cXe3vTBWcdBTFs_-47" value="+content: str" style="text;strokeColor=none;fillColor=none;align=left;verticalAlign=top;spacingLeft=4;spacingRight=4;overflow=hidden;rotatable=0;points=[[0,0.5],[1,0.5]];portConstraint=eastwest;" vertex="1" parent="FbRC_cXe3vTBWcdBTFs_-43">
          <mxGeometry y="104" width="153" height="26" as="geometry" />
        </mxCell>
        <mxCell id="FbRC_cXe3vTBWcdBTFs_-48" value="+sent_at: datetime" style="text;strokeColor=none;fillColor=none;align=left;verticalAlign=top;spacingLeft=4;spacingRight=4;overflow=hidden;rotatable=0;points=[[0,0.5],[1,0.5]];portConstraint=eastwest;" vertex="1" parent="FbRC_cXe3vTBWcdBTFs_-43">
          <mxGeometry y="130" width="153" height="26" as="geometry" />
        </mxCell>
        <mxCell id="FbRC_cXe3vTBWcdBTFs_-49" value="+read_status: bool" style="text;strokeColor=none;fillColor=none;align=left;verticalAlign=top;spacingLeft=4;spacingRight=4;overflow=hidden;rotatable=0;points=[[0,0.5],[1,0.5]];portConstraint=eastwest;" vertex="1" parent="FbRC_cXe3vTBWcdBTFs_-43">
          <mxGeometry y="156" width="153" height="26" as="geometry" />
        </mxCell>
        <mxCell id="FbRC_cXe3vTBWcdBTFs_-50" style="line;strokeWidth=1;fillColor=none;align=left;verticalAlign=middle;spacingTop=-1;spacingLeft=3;spacingRight=3;rotatable=0;labelPosition=right;points=[];portConstraint=eastwest;strokeColor=inherit;" vertex="1" parent="FbRC_cXe3vTBWcdBTFs_-43">
          <mxGeometry y="182" width="153" height="8" as="geometry" />
        </mxCell>
        <mxCell id="FbRC_cXe3vTBWcdBTFs_-51" value="+send_message()" style="text;strokeColor=none;fillColor=none;align=left;verticalAlign=top;spacingLeft=4;spacingRight=4;overflow=hidden;rotatable=0;points=[[0,0.5],[1,0.5]];portConstraint=eastwest;" vertex="1" parent="FbRC_cXe3vTBWcdBTFs_-43">
          <mxGeometry y="190" width="153" height="26" as="geometry" />
        </mxCell>
        <mxCell id="FbRC_cXe3vTBWcdBTFs_-52" value="+mark_as_read()" style="text;strokeColor=none;fillColor=none;align=left;verticalAlign=top;spacingLeft=4;spacingRight=4;overflow=hidden;rotatable=0;points=[[0,0.5],[1,0.5]];portConstraint=eastwest;" vertex="1" parent="FbRC_cXe3vTBWcdBTFs_-43">
          <mxGeometry y="216" width="153" height="26" as="geometry" />
        </mxCell>
        <mxCell id="FbRC_cXe3vTBWcdBTFs_-53" value="Notification" style="swimlane;fontStyle=1;align=center;verticalAlign=top;childLayout=stackLayout;horizontal=1;startSize=26;horizontalStack=0;resizeParent=1;resizeParentMax=0;resizeLast=0;collapsible=0;marginBottom=0;" vertex="1" parent="1">
          <mxGeometry x="281" y="688" width="178" height="242" as="geometry" />
        </mxCell>
        <mxCell id="FbRC_cXe3vTBWcdBTFs_-54" value="+id: int" style="text;strokeColor=none;fillColor=none;align=left;verticalAlign=top;spacingLeft=4;spacingRight=4;overflow=hidden;rotatable=0;points=[[0,0.5],[1,0.5]];portConstraint=eastwest;" vertex="1" parent="FbRC_cXe3vTBWcdBTFs_-53">
          <mxGeometry y="26" width="178" height="26" as="geometry" />
        </mxCell>
        <mxCell id="FbRC_cXe3vTBWcdBTFs_-55" value="+recipient: User" style="text;strokeColor=none;fillColor=none;align=left;verticalAlign=top;spacingLeft=4;spacingRight=4;overflow=hidden;rotatable=0;points=[[0,0.5],[1,0.5]];portConstraint=eastwest;" vertex="1" parent="FbRC_cXe3vTBWcdBTFs_-53">
          <mxGeometry y="52" width="178" height="26" as="geometry" />
        </mxCell>
        <mxCell id="FbRC_cXe3vTBWcdBTFs_-56" value="+type: str" style="text;strokeColor=none;fillColor=none;align=left;verticalAlign=top;spacingLeft=4;spacingRight=4;overflow=hidden;rotatable=0;points=[[0,0.5],[1,0.5]];portConstraint=eastwest;" vertex="1" parent="FbRC_cXe3vTBWcdBTFs_-53">
          <mxGeometry y="78" width="178" height="26" as="geometry" />
        </mxCell>
        <mxCell id="FbRC_cXe3vTBWcdBTFs_-57" value="+message: str" style="text;strokeColor=none;fillColor=none;align=left;verticalAlign=top;spacingLeft=4;spacingRight=4;overflow=hidden;rotatable=0;points=[[0,0.5],[1,0.5]];portConstraint=eastwest;" vertex="1" parent="FbRC_cXe3vTBWcdBTFs_-53">
          <mxGeometry y="104" width="178" height="26" as="geometry" />
        </mxCell>
        <mxCell id="FbRC_cXe3vTBWcdBTFs_-58" value="+read_status: bool" style="text;strokeColor=none;fillColor=none;align=left;verticalAlign=top;spacingLeft=4;spacingRight=4;overflow=hidden;rotatable=0;points=[[0,0.5],[1,0.5]];portConstraint=eastwest;" vertex="1" parent="FbRC_cXe3vTBWcdBTFs_-53">
          <mxGeometry y="130" width="178" height="26" as="geometry" />
        </mxCell>
        <mxCell id="FbRC_cXe3vTBWcdBTFs_-59" value="+created_at: datetime" style="text;strokeColor=none;fillColor=none;align=left;verticalAlign=top;spacingLeft=4;spacingRight=4;overflow=hidden;rotatable=0;points=[[0,0.5],[1,0.5]];portConstraint=eastwest;" vertex="1" parent="FbRC_cXe3vTBWcdBTFs_-53">
          <mxGeometry y="156" width="178" height="26" as="geometry" />
        </mxCell>
        <mxCell id="FbRC_cXe3vTBWcdBTFs_-60" style="line;strokeWidth=1;fillColor=none;align=left;verticalAlign=middle;spacingTop=-1;spacingLeft=3;spacingRight=3;rotatable=0;labelPosition=right;points=[];portConstraint=eastwest;strokeColor=inherit;" vertex="1" parent="FbRC_cXe3vTBWcdBTFs_-53">
          <mxGeometry y="182" width="178" height="8" as="geometry" />
        </mxCell>
        <mxCell id="FbRC_cXe3vTBWcdBTFs_-61" value="+send_notification()" style="text;strokeColor=none;fillColor=none;align=left;verticalAlign=top;spacingLeft=4;spacingRight=4;overflow=hidden;rotatable=0;points=[[0,0.5],[1,0.5]];portConstraint=eastwest;" vertex="1" parent="FbRC_cXe3vTBWcdBTFs_-53">
          <mxGeometry y="190" width="178" height="26" as="geometry" />
        </mxCell>
        <mxCell id="FbRC_cXe3vTBWcdBTFs_-62" value="+mark_as_read()" style="text;strokeColor=none;fillColor=none;align=left;verticalAlign=top;spacingLeft=4;spacingRight=4;overflow=hidden;rotatable=0;points=[[0,0.5],[1,0.5]];portConstraint=eastwest;" vertex="1" parent="FbRC_cXe3vTBWcdBTFs_-53">
          <mxGeometry y="216" width="178" height="26" as="geometry" />
        </mxCell>
        <mxCell id="FbRC_cXe3vTBWcdBTFs_-63" value="FriendRequest" style="swimlane;fontStyle=1;align=center;verticalAlign=top;childLayout=stackLayout;horizontal=1;startSize=26.857142857142858;horizontalStack=0;resizeParent=1;resizeParentMax=0;resizeLast=0;collapsible=0;marginBottom=0;" vertex="1" parent="1">
          <mxGeometry x="509" y="711" width="315" height="196.85714285714286" as="geometry" />
        </mxCell>
        <mxCell id="FbRC_cXe3vTBWcdBTFs_-64" value="+id: int" style="text;strokeColor=none;fillColor=none;align=left;verticalAlign=top;spacingLeft=4;spacingRight=4;overflow=hidden;rotatable=0;points=[[0,0.5],[1,0.5]];portConstraint=eastwest;" vertex="1" parent="FbRC_cXe3vTBWcdBTFs_-63">
          <mxGeometry y="26.857142857142858" width="315" height="27" as="geometry" />
        </mxCell>
        <mxCell id="FbRC_cXe3vTBWcdBTFs_-65" value="+sender: User" style="text;strokeColor=none;fillColor=none;align=left;verticalAlign=top;spacingLeft=4;spacingRight=4;overflow=hidden;rotatable=0;points=[[0,0.5],[1,0.5]];portConstraint=eastwest;" vertex="1" parent="FbRC_cXe3vTBWcdBTFs_-63">
          <mxGeometry y="53.85714285714286" width="315" height="27" as="geometry" />
        </mxCell>
        <mxCell id="FbRC_cXe3vTBWcdBTFs_-66" value="+receiver: User" style="text;strokeColor=none;fillColor=none;align=left;verticalAlign=top;spacingLeft=4;spacingRight=4;overflow=hidden;rotatable=0;points=[[0,0.5],[1,0.5]];portConstraint=eastwest;" vertex="1" parent="FbRC_cXe3vTBWcdBTFs_-63">
          <mxGeometry y="80.85714285714286" width="315" height="27" as="geometry" />
        </mxCell>
        <mxCell id="FbRC_cXe3vTBWcdBTFs_-67" value="+sent_at: datetime" style="text;strokeColor=none;fillColor=none;align=left;verticalAlign=top;spacingLeft=4;spacingRight=4;overflow=hidden;rotatable=0;points=[[0,0.5],[1,0.5]];portConstraint=eastwest;" vertex="1" parent="FbRC_cXe3vTBWcdBTFs_-63">
          <mxGeometry y="107.85714285714286" width="315" height="27" as="geometry" />
        </mxCell>
        <mxCell id="FbRC_cXe3vTBWcdBTFs_-68" style="line;strokeWidth=1;fillColor=none;align=left;verticalAlign=middle;spacingTop=-1;spacingLeft=3;spacingRight=3;rotatable=0;labelPosition=right;points=[];portConstraint=eastwest;strokeColor=inherit;" vertex="1" parent="FbRC_cXe3vTBWcdBTFs_-63">
          <mxGeometry y="134.85714285714286" width="315" height="8" as="geometry" />
        </mxCell>
        <mxCell id="FbRC_cXe3vTBWcdBTFs_-69" value="+status: str(Pending, Accepted, Rejected)" style="text;strokeColor=none;fillColor=none;align=left;verticalAlign=top;spacingLeft=4;spacingRight=4;overflow=hidden;rotatable=0;points=[[0,0.5],[1,0.5]];portConstraint=eastwest;" vertex="1" parent="FbRC_cXe3vTBWcdBTFs_-63">
          <mxGeometry y="142.85714285714286" width="315" height="27" as="geometry" />
        </mxCell>
        <mxCell id="FbRC_cXe3vTBWcdBTFs_-70" value="+respond_to_request()" style="text;strokeColor=none;fillColor=none;align=left;verticalAlign=top;spacingLeft=4;spacingRight=4;overflow=hidden;rotatable=0;points=[[0,0.5],[1,0.5]];portConstraint=eastwest;" vertex="1" parent="FbRC_cXe3vTBWcdBTFs_-63">
          <mxGeometry y="169.85714285714286" width="315" height="27" as="geometry" />
        </mxCell>
        <mxCell id="FbRC_cXe3vTBWcdBTFs_-71" value="Database" style="swimlane;fontStyle=1;align=center;verticalAlign=top;childLayout=stackLayout;horizontal=1;startSize=25.818181818181817;horizontalStack=0;resizeParent=1;resizeParentMax=0;resizeLast=0;collapsible=0;marginBottom=0;" vertex="1" parent="1">
          <mxGeometry x="571" y="354" width="126" height="137.8181818181818" as="geometry" />
        </mxCell>
        <mxCell id="FbRC_cXe3vTBWcdBTFs_-72" style="line;strokeWidth=1;fillColor=none;align=left;verticalAlign=middle;spacingTop=-1;spacingLeft=3;spacingRight=3;rotatable=0;labelPosition=right;points=[];portConstraint=eastwest;strokeColor=inherit;" vertex="1" parent="FbRC_cXe3vTBWcdBTFs_-71">
          <mxGeometry y="25.818181818181817" width="126" height="8" as="geometry" />
        </mxCell>
        <mxCell id="FbRC_cXe3vTBWcdBTFs_-73" value="+store_data()" style="text;strokeColor=none;fillColor=none;align=left;verticalAlign=top;spacingLeft=4;spacingRight=4;overflow=hidden;rotatable=0;points=[[0,0.5],[1,0.5]];portConstraint=eastwest;" vertex="1" parent="FbRC_cXe3vTBWcdBTFs_-71">
          <mxGeometry y="33.81818181818181" width="126" height="26" as="geometry" />
        </mxCell>
        <mxCell id="FbRC_cXe3vTBWcdBTFs_-74" value="+fetch_data()" style="text;strokeColor=none;fillColor=none;align=left;verticalAlign=top;spacingLeft=4;spacingRight=4;overflow=hidden;rotatable=0;points=[[0,0.5],[1,0.5]];portConstraint=eastwest;" vertex="1" parent="FbRC_cXe3vTBWcdBTFs_-71">
          <mxGeometry y="59.81818181818181" width="126" height="26" as="geometry" />
        </mxCell>
        <mxCell id="FbRC_cXe3vTBWcdBTFs_-75" value="+update_data()" style="text;strokeColor=none;fillColor=none;align=left;verticalAlign=top;spacingLeft=4;spacingRight=4;overflow=hidden;rotatable=0;points=[[0,0.5],[1,0.5]];portConstraint=eastwest;" vertex="1" parent="FbRC_cXe3vTBWcdBTFs_-71">
          <mxGeometry y="85.81818181818181" width="126" height="26" as="geometry" />
        </mxCell>
        <mxCell id="FbRC_cXe3vTBWcdBTFs_-76" value="+delete_data()" style="text;strokeColor=none;fillColor=none;align=left;verticalAlign=top;spacingLeft=4;spacingRight=4;overflow=hidden;rotatable=0;points=[[0,0.5],[1,0.5]];portConstraint=eastwest;" vertex="1" parent="FbRC_cXe3vTBWcdBTFs_-71">
          <mxGeometry y="111.81818181818181" width="126" height="26" as="geometry" />
        </mxCell>
        <mxCell id="FbRC_cXe3vTBWcdBTFs_-77" value="ExternalSystem" style="swimlane;fontStyle=1;align=center;verticalAlign=top;childLayout=stackLayout;horizontal=1;startSize=27.428571428571427;horizontalStack=0;resizeParent=1;resizeParentMax=0;resizeLast=0;collapsible=0;marginBottom=0;" vertex="1" parent="1">
          <mxGeometry x="506" y="55" width="256" height="89.42857142857143" as="geometry" />
        </mxCell>
        <mxCell id="FbRC_cXe3vTBWcdBTFs_-78" style="line;strokeWidth=1;fillColor=none;align=left;verticalAlign=middle;spacingTop=-1;spacingLeft=3;spacingRight=3;rotatable=0;labelPosition=right;points=[];portConstraint=eastwest;strokeColor=inherit;" vertex="1" parent="FbRC_cXe3vTBWcdBTFs_-77">
          <mxGeometry y="27.428571428571427" width="256" height="8" as="geometry" />
        </mxCell>
        <mxCell id="FbRC_cXe3vTBWcdBTFs_-79" value="+authenticate_user(provider: str)" style="text;strokeColor=none;fillColor=none;align=left;verticalAlign=top;spacingLeft=4;spacingRight=4;overflow=hidden;rotatable=0;points=[[0,0.5],[1,0.5]];portConstraint=eastwest;" vertex="1" parent="FbRC_cXe3vTBWcdBTFs_-77">
          <mxGeometry y="35.42857142857143" width="256" height="27" as="geometry" />
        </mxCell>
        <mxCell id="FbRC_cXe3vTBWcdBTFs_-80" value="+upload_media(file: str)" style="text;strokeColor=none;fillColor=none;align=left;verticalAlign=top;spacingLeft=4;spacingRight=4;overflow=hidden;rotatable=0;points=[[0,0.5],[1,0.5]];portConstraint=eastwest;" vertex="1" parent="FbRC_cXe3vTBWcdBTFs_-77">
          <mxGeometry y="62.42857142857143" width="256" height="27" as="geometry" />
        </mxCell>
        <mxCell id="FbRC_cXe3vTBWcdBTFs_-81" value="creates" style="curved=1;startArrow=none;endArrow=none;exitX=1;exitY=0.59;entryX=0.5;entryY=0;rounded=0;" edge="1" parent="1" source="FbRC_cXe3vTBWcdBTFs_-1" target="FbRC_cXe3vTBWcdBTFs_-22">
          <mxGeometry relative="1" as="geometry">
            <Array as="points">
              <mxPoint x="981" y="631" />
            </Array>
          </mxGeometry>
        </mxCell>
        <mxCell id="FbRC_cXe3vTBWcdBTFs_-82" value="1" style="edgeLabel;resizable=0;labelBackgroundColor=none;fontSize=12;align=left;verticalAlign=top;" vertex="1" parent="FbRC_cXe3vTBWcdBTFs_-81">
          <mxGeometry x="-1" relative="1" as="geometry" />
        </mxCell>
        <mxCell id="FbRC_cXe3vTBWcdBTFs_-83" value="many" style="edgeLabel;resizable=0;labelBackgroundColor=none;fontSize=12;align=right;verticalAlign=bottom;" vertex="1" parent="FbRC_cXe3vTBWcdBTFs_-81">
          <mxGeometry x="1" relative="1" as="geometry" />
        </mxCell>
        <mxCell id="FbRC_cXe3vTBWcdBTFs_-84" value="writes" style="curved=1;startArrow=none;endArrow=none;exitX=0;exitY=0.65;entryX=0;entryY=0.33;rounded=0;" edge="1" parent="1" source="FbRC_cXe3vTBWcdBTFs_-1" target="FbRC_cXe3vTBWcdBTFs_-34">
          <mxGeometry relative="1" as="geometry">
            <Array as="points">
              <mxPoint x="20" y="631" />
              <mxPoint x="20" y="988" />
            </Array>
          </mxGeometry>
        </mxCell>
        <mxCell id="FbRC_cXe3vTBWcdBTFs_-85" value="1" style="edgeLabel;resizable=0;labelBackgroundColor=none;fontSize=12;align=right;verticalAlign=top;" vertex="1" parent="FbRC_cXe3vTBWcdBTFs_-84">
          <mxGeometry x="-1" relative="1" as="geometry" />
        </mxCell>
        <mxCell id="FbRC_cXe3vTBWcdBTFs_-86" value="many" style="edgeLabel;resizable=0;labelBackgroundColor=none;fontSize=12;align=left;verticalAlign=bottom;" vertex="1" parent="FbRC_cXe3vTBWcdBTFs_-84">
          <mxGeometry x="1" relative="1" as="geometry" />
        </mxCell>
        <mxCell id="FbRC_cXe3vTBWcdBTFs_-87" value="sends" style="curved=1;startArrow=none;endArrow=none;exitX=0;exitY=0.75;entryX=0.5;entryY=0;rounded=0;" edge="1" parent="1" source="FbRC_cXe3vTBWcdBTFs_-1" target="FbRC_cXe3vTBWcdBTFs_-43">
          <mxGeometry relative="1" as="geometry">
            <Array as="points">
              <mxPoint x="154" y="631" />
            </Array>
          </mxGeometry>
        </mxCell>
        <mxCell id="FbRC_cXe3vTBWcdBTFs_-88" value="1" style="edgeLabel;resizable=0;labelBackgroundColor=none;fontSize=12;align=right;verticalAlign=top;" vertex="1" parent="FbRC_cXe3vTBWcdBTFs_-87">
          <mxGeometry x="-1" relative="1" as="geometry" />
        </mxCell>
        <mxCell id="FbRC_cXe3vTBWcdBTFs_-89" value="many" style="edgeLabel;resizable=0;labelBackgroundColor=none;fontSize=12;align=left;verticalAlign=bottom;" vertex="1" parent="FbRC_cXe3vTBWcdBTFs_-87">
          <mxGeometry x="1" relative="1" as="geometry" />
        </mxCell>
        <mxCell id="FbRC_cXe3vTBWcdBTFs_-90" value="receives" style="curved=1;startArrow=none;endArrow=none;exitX=0.5;exitY=1;entryX=0.5;entryY=0;rounded=0;" edge="1" parent="1" source="FbRC_cXe3vTBWcdBTFs_-1" target="FbRC_cXe3vTBWcdBTFs_-53">
          <mxGeometry relative="1" as="geometry">
            <Array as="points" />
          </mxGeometry>
        </mxCell>
        <mxCell id="FbRC_cXe3vTBWcdBTFs_-91" value="1" style="edgeLabel;resizable=0;labelBackgroundColor=none;fontSize=12;align=right;verticalAlign=top;" vertex="1" parent="FbRC_cXe3vTBWcdBTFs_-90">
          <mxGeometry x="-1" relative="1" as="geometry" />
        </mxCell>
        <mxCell id="FbRC_cXe3vTBWcdBTFs_-92" value="many" style="edgeLabel;resizable=0;labelBackgroundColor=none;fontSize=12;align=left;verticalAlign=bottom;" vertex="1" parent="FbRC_cXe3vTBWcdBTFs_-90">
          <mxGeometry x="1" relative="1" as="geometry" />
        </mxCell>
        <mxCell id="FbRC_cXe3vTBWcdBTFs_-93" value="interacts" style="curved=1;startArrow=none;endArrow=none;exitX=1;exitY=0.68;entryX=0.5;entryY=0;rounded=0;" edge="1" parent="1" source="FbRC_cXe3vTBWcdBTFs_-1" target="FbRC_cXe3vTBWcdBTFs_-63">
          <mxGeometry relative="1" as="geometry">
            <Array as="points">
              <mxPoint x="666" y="631" />
            </Array>
          </mxGeometry>
        </mxCell>
        <mxCell id="FbRC_cXe3vTBWcdBTFs_-94" value="1" style="edgeLabel;resizable=0;labelBackgroundColor=none;fontSize=12;align=left;verticalAlign=top;" vertex="1" parent="FbRC_cXe3vTBWcdBTFs_-93">
          <mxGeometry x="-1" relative="1" as="geometry" />
        </mxCell>
        <mxCell id="FbRC_cXe3vTBWcdBTFs_-95" value="many" style="edgeLabel;resizable=0;labelBackgroundColor=none;fontSize=12;align=right;verticalAlign=bottom;" vertex="1" parent="FbRC_cXe3vTBWcdBTFs_-93">
          <mxGeometry x="1" relative="1" as="geometry" />
        </mxCell>
        <mxCell id="FbRC_cXe3vTBWcdBTFs_-96" value="has" style="curved=1;startArrow=none;endArrow=none;exitX=0.5;exitY=1;entryX=1;entryY=0.4;rounded=0;" edge="1" parent="1" source="FbRC_cXe3vTBWcdBTFs_-22" target="FbRC_cXe3vTBWcdBTFs_-34">
          <mxGeometry relative="1" as="geometry">
            <Array as="points">
              <mxPoint x="981" y="988" />
            </Array>
          </mxGeometry>
        </mxCell>
        <mxCell id="FbRC_cXe3vTBWcdBTFs_-97" value="1" style="edgeLabel;resizable=0;labelBackgroundColor=none;fontSize=12;align=right;verticalAlign=top;" vertex="1" parent="FbRC_cXe3vTBWcdBTFs_-96">
          <mxGeometry x="-1" relative="1" as="geometry" />
        </mxCell>
        <mxCell id="FbRC_cXe3vTBWcdBTFs_-98" value="many" style="edgeLabel;resizable=0;labelBackgroundColor=none;fontSize=12;align=left;verticalAlign=bottom;" vertex="1" parent="FbRC_cXe3vTBWcdBTFs_-96">
          <mxGeometry x="1" relative="1" as="geometry" />
        </mxCell>
        <mxCell id="FbRC_cXe3vTBWcdBTFs_-99" value="inherits" style="curved=1;startArrow=block;startSize=16;startFill=0;endArrow=none;exitX=0.5;exitY=1;entryX=0.5;entryY=0;rounded=0;" edge="1" parent="1" source="FbRC_cXe3vTBWcdBTFs_-15" target="FbRC_cXe3vTBWcdBTFs_-1">
          <mxGeometry relative="1" as="geometry">
            <Array as="points" />
          </mxGeometry>
        </mxCell>
        <mxCell id="FbRC_cXe3vTBWcdBTFs_-100" value="supports" style="curved=1;startArrow=none;endArrow=none;exitX=0.5;exitY=1;entryX=0.5;entryY=0;rounded=0;" edge="1" parent="1" source="FbRC_cXe3vTBWcdBTFs_-77" target="FbRC_cXe3vTBWcdBTFs_-71">
          <mxGeometry relative="1" as="geometry">
            <Array as="points" />
          </mxGeometry>
        </mxCell>
        <mxCell id="N48tDYszKVavKzMmbc0--1" value="&lt;font style=&quot;font-size: 18px;&quot;&gt;&lt;b style=&quot;&quot;&gt;Social Media App&lt;/b&gt;&lt;/font&gt;&lt;div&gt;&lt;br&gt;&lt;/div&gt;" style="text;html=1;align=center;verticalAlign=middle;whiteSpace=wrap;rounded=0;" vertex="1" parent="1">
          <mxGeometry x="440" y="10" width="240" height="30" as="geometry" />
        </mxCell>
      </root>
    </mxGraphModel>
  </diagram>
</mxfile>
